<svg xmlns="http://www.w3.org/2000/svg" viewBox="6 0 108 120" aria-label="Clashroom">
  <path d="M60 36 L46 42 L26 6 L14 54 L26 84 L60 116 L94 84 L106 54 L94 6 L74 42 Z" fill="#FF9E33" stroke="#FF9E33" stroke-width="4" stroke-linejoin="round"/>
  <path d="M31 18 L23 48 L43 41 Z" fill="#2B1338" stroke="#2B1338" stroke-width="3" stroke-linejoin="round"/>
  <path d="M89 18 L97 48 L77 41 Z" fill="#2B1338" stroke="#2B1338" stroke-width="3" stroke-linejoin="round"/>
  <path d="M60 46 L42 58 L34 80 L60 110 L86 80 L78 58 Z" fill="#FFF6EC" stroke="#FFF6EC" stroke-width="3" stroke-linejoin="round"/>
  <ellipse cx="43" cy="56" rx="5.6" ry="4.2" transform="rotate(22 43 56)" fill="#2B1338"/>
  <ellipse cx="77" cy="56" rx="5.6" ry="4.2" transform="rotate(-22 77 56)" fill="#2B1338"/>
  <path d="M53 78 H67 L60 90 Z" fill="#2B1338" stroke="#2B1338" stroke-width="3" stroke-linejoin="round"/>
</svg>
